# xmcd CD database file
#
# Track frame offsets:
#	150
#	21589
#	38263
#
# Disc length: 861 seconds
#
# Revision: 0
# Processed by: cddbd v1.5.1PL0 Copyright (c) Steve Scherf et al.
# Submitted via: CDex 1.50beta8
#
DISCID=19035b03
DTITLE=FIRE BALL - アンジェリータ
DYEAR=2003
DGENRE=Reggae
TTITLE0=アンジェリータ
TTITLE1=GOT YOU ON 〜20K〜
TTITLE2=HOLIDAY
EXTD=YEAR: 2003
EXTT0=
EXTT1=
EXTT2=
PLAYORDER=
